<?xml version="1.0" encoding="UTF-8" standalone="no"?>
<svg
   width="128"
   height="128"
   viewBox="0 0 128 128"
   fill="none"
   version="1.1"
   id="svg2"
   sodipodi:docname="eu.fangornsrealm.commander.svg"
   inkscape:version="1.4 (e7c3feb100, 2024-10-09)"
   xmlns:inkscape="http://www.inkscape.org/namespaces/inkscape"
   xmlns:sodipodi="http://sodipodi.sourceforge.net/DTD/sodipodi-0.dtd"
   xmlns="http://www.w3.org/2000/svg"
   xmlns:svg="http://www.w3.org/2000/svg">
  <sodipodi:namedview
     id="namedview2"
     pagecolor="#ffffff"
     bordercolor="#000000"
     borderopacity="0.25"
     inkscape:showpageshadow="2"
     inkscape:pageopacity="0.0"
     inkscape:pagecheckerboard="0"
     inkscape:deskcolor="#d1d1d1"
     showgrid="true"
     inkscape:zoom="14.710938"
     inkscape:cx="63.999998"
     inkscape:cy="51.866169"
     inkscape:window-width="1239"
     inkscape:window-height="1217"
     inkscape:window-x="0"
     inkscape:window-y="0"
     inkscape:window-maximized="0"
     inkscape:current-layer="Size=128-5">
    <inkscape:grid
       id="grid2"
       units="px"
       originx="0"
       originy="0"
       spacingx="1"
       spacingy="1"
       empcolor="#0099e5"
       empopacity="0.30196078"
       color="#0099e5"
       opacity="0.14901961"
       empspacing="5"
       enabled="true"
       visible="true" />
  </sodipodi:namedview>
  <g
     id="Size=128-5"
     transform="matrix(0.51666667,0,0,0.82078888,62.403061,3.7594748)">
    <g
       id="g3"
       transform="translate(0,6.0917005)">
      <path
         id="Rectangle 491"
         d="m -120.78012,3.7265453 c 0,-4.58777621 3.58172,-8.3068642 8,-8.3068642 h 35.898505 c 1.690797,0 3.337998,0.5562494 4.7054,1.5887916 l 8.896097,6.7180726 h 54.5000025 c 4.4179994,0 7.99999943,3.719088 7.99999943,8.3068637 v 66.454915 c 0,4.587466 -3.58200003,8.306864 -7.99999943,8.306864 H -112.78012 c -4.41828,0 -8,-3.719398 -8,-8.306864 z"
         fill="#008490"
         style="stroke-width:1.019" />
      <rect
         id="Rectangle 418"
         x="-120.78012"
         y="13.694782"
         width="120"
         height="73.100403"
         rx="8"
         fill="url(#paint0_linear_2004_703)"
         style="fill:url(#paint0_linear_2004_703);stroke-width:1.00761" />
      <g
         id="g2"
         transform="matrix(1.9354839,0,0,1.2183401,-120.78012,-4.5803189)" />
      <rect
         id="Rectangle 418-1"
         x="-122.33464"
         y="90.459785"
         width="247.74193"
         height="36.173935"
         rx="16.516132"
         fill="url(#paint0_linear_2004_703)"
         style="fill:#6a6a6a;stroke-width:1.01845;fill-opacity:1"
         transform="matrix(1,0,0.01454834,0.99989417,0,0)" />
      <path
         id="Rectangle 491-3"
         d="m 4,3.7265454 c 0,-4.58777731 3.58172,-8.3068643 8,-8.3068643 h 35.8985 c 1.690799,0 3.337999,0.5562484 4.7054,1.5887916 l 8.896099,6.7180727 H 116 c 4.41799,0 8,3.7190869 8,8.3068646 v 66.454914 c 0,4.587466 -3.58201,8.306864 -8,8.306864 H 12 c -4.41828,0 -8,-3.719398 -8,-8.306864 z"
         fill="#008490"
         style="stroke-width:1.019" />
      <rect
         id="Rectangle 418-5"
         x="4"
         y="13.694782"
         width="120"
         height="73.100403"
         rx="8"
         fill="url(#paint0_linear_2004_703)"
         style="fill:url(#paint0_linear_2004_703-3);stroke-width:1.00761" />
    </g>
  </g>
  <defs
     id="defs2">
    <linearGradient
       id="linearGradient4"
       x1="124"
       y1="36"
       x2="20.4185"
       y2="126.742"
       gradientUnits="userSpaceOnUse"
       gradientTransform="matrix(0.4952735,0,0,0.82078888,2.018906,3.5842225)">
      <stop
         stop-color="#49BAC8"
         id="stop3"
         offset="0"
         style="stop-color:#061315;stop-opacity:1;" />
      <stop
         offset="1"
         stop-color="#229FAD"
         id="stop4"
         style="stop-color:#071d21;stop-opacity:0.22915357;" />
    </linearGradient>
    <linearGradient
       id="paint0_linear_2004_703"
       x1="124"
       y1="36"
       x2="20.4185"
       y2="126.742"
       gradientUnits="userSpaceOnUse"
       gradientTransform="matrix(0.99999993,0,0,1.0152834,-124.78012,-22.855421)">
      <stop
         stop-color="#49BAC8"
         id="stop1" />
      <stop
         offset="1"
         stop-color="#229FAD"
         id="stop2" />
    </linearGradient>
    <linearGradient
       id="paint0_linear_2004_703-3"
       x1="124"
       y1="36"
       x2="20.418501"
       y2="126.742"
       gradientUnits="userSpaceOnUse"
       gradientTransform="matrix(1,0,0,1.0152834,0,-22.85542)">
      <stop
         stop-color="#49BAC8"
         id="stop1-6" />
      <stop
         offset="1"
         stop-color="#229FAD"
         id="stop2-7" />
    </linearGradient>
  </defs>
</svg>
